<svg preserveAspectRatio="none" overflow="visible" style="display: block;" width="18" height="18" viewBox="0 0 18 18" fill="none" xmlns="http://www.w3.org/2000/svg">
<g id="Icon Ellipsis Vertical">
<path id="Vector" d="M9 5.45833C8.80849 5.45833 8.61885 5.42061 8.44192 5.34732C8.26499 5.27404 8.10422 5.16662 7.9688 5.0312C7.83338 4.89578 7.72596 4.73501 7.65268 4.55808C7.57939 4.38115 7.54167 4.19151 7.54167 4C7.54167 3.80849 7.57939 3.61885 7.65268 3.44192C7.72596 3.26499 7.83338 3.10422 7.9688 2.9688C8.10422 2.83338 8.26499 2.72596 8.44192 2.65268C8.61885 2.57939 8.80849 2.54167 9 2.54167C9.38677 2.54167 9.75771 2.69531 10.0312 2.9688C10.3047 3.24229 10.4583 3.61323 10.4583 4C10.4583 4.38677 10.3047 4.75771 10.0312 5.0312C9.75771 5.30469 9.38677 5.45833 9 5.45833ZM9 10.4583C8.61323 10.4583 8.24229 10.3047 7.9688 10.0312C7.69531 9.75771 7.54167 9.38677 7.54167 9C7.54167 8.61323 7.69531 8.24229 7.9688 7.9688C8.24229 7.69531 8.61323 7.54167 9 7.54167C9.38677 7.54167 9.75771 7.69531 10.0312 7.9688C10.3047 8.24229 10.4583 8.61323 10.4583 9C10.4583 9.38677 10.3047 9.75771 10.0312 10.0312C9.75771 10.3047 9.38677 10.4583 9 10.4583ZM7.54167 14C7.54167 14.3868 7.69531 14.7577 7.9688 15.0312C8.24229 15.3047 8.61323 15.4583 9 15.4583C9.38677 15.4583 9.75771 15.3047 10.0312 15.0312C10.3047 14.7577 10.4583 14.3868 10.4583 14C10.4583 13.6132 10.3047 13.2423 10.0312 12.9688C9.75771 12.6953 9.38677 12.5417 9 12.5417C8.61323 12.5417 8.24229 12.6953 7.9688 12.9688C7.69531 13.2423 7.54167 13.6132 7.54167 14Z" fill="#5E6064"/>
</g>
</svg>
